<?xml version="1.0" standalone="no"?>
<!DOCTYPE svg PUBLIC "-//W3C//DTD SVG 20010904//EN"
 "http://www.w3.org/TR/2001/REC-SVG-20010904/DTD/svg10.dtd">
<svg version="1.0" xmlns="http://www.w3.org/2000/svg"
 width="319.000000pt" height="319.000000pt" viewBox="0 0 319.000000 319.000000"
 preserveAspectRatio="xMidYMid meet">
<metadata>
Created by potrace 1.14, written by Peter Selinger 2001-2017
</metadata>
<g transform="translate(0.000000,319.000000) scale(0.100000,-0.100000)"
fill="#000000" stroke="none">
<path d="M1680 2983 c-122 -16 -258 -20 -340 -9 -36 5 -76 9 -90 10 -35 0
-306 -15 -333 -19 -12 -2 -69 -6 -127 -10 -61 -4 -114 -12 -126 -20 -31 -20
-52 -150 -35 -214 7 -25 17 -140 21 -256 5 -115 11 -217 14 -225 9 -28 15 -97
21 -247 2 -81 7 -213 10 -293 3 -80 7 -154 9 -165 2 -11 7 -51 10 -90 4 -38 9
-88 11 -110 12 -105 25 -247 30 -315 3 -41 8 -91 12 -110 3 -19 7 -56 8 -82 4
-51 34 -112 63 -123 9 -3 76 -8 147 -11 72 -2 162 -8 200 -13 39 -5 113 -7
165 -4 117 6 280 5 745 -3 575 -9 729 -7 804 14 60 17 65 21 99 76 42 67 43
77 46 391 2 172 8 251 34 435 17 124 34 252 37 285 4 33 13 96 22 140 8 44 17
148 20 230 2 83 11 182 19 222 17 76 14 148 -11 288 -2 11 -4 40 -4 65 -1 40
-6 49 -61 102 l-60 59 -62 -8 c-72 -9 -149 -8 -363 3 -178 10 -332 11 -435 3
-41 -3 -113 -2 -160 3 -148 14 -242 15 -340 1z"/>
<path d="M130 2952 c-64 -5 -80 -12 -100 -45 -28 -45 -26 -133 5 -248 27 -101
32 -139 40 -303 3 -60 7 -112 9 -115 2 -3 7 -35 10 -71 16 -153 16 -151 75
-525 16 -104 32 -226 35 -270 27 -403 26 -392 62 -622 6 -41 33 -49 179 -58
l110 -6 26 28 c24 25 28 41 40 155 13 135 13 134 -35 538 -8 63 -17 169 -21
235 -3 66 -17 176 -30 245 -21 109 -23 149 -21 310 3 120 -1 222 -10 290 -17
125 -21 159 -29 298 -7 114 -18 139 -58 140 -12 0 -49 7 -82 15 -55 15 -106
17 -205 9z"/>
<path d="M547 583 c-3 -2 -45 -4 -93 -4 -48 0 -98 -2 -112 -6 l-25 -6 7 -96
c10 -128 24 -191 44 -197 10 -3 35 -14 58 -25 23 -10 63 -23 90 -28 71 -13
274 -14 345 -1 76 14 153 15 489 5 367 -11 516 -11 655 -1 199 14 239 15 291
4 27 -5 174 -10 327 -11 323 0 299 -8 362 119 35 71 39 104 15 104 -7 0 -10
21 -9 55 1 30 -1 58 -5 62 -4 4 -51 6 -104 4 -118 -5 -299 -5 -492 -1 -117 3
-495 4 -572 2 -10 -1 -51 0 -90 0 -40 1 -107 0 -148 -1 -218 -9 -927 9 -1012
24 -9 2 -18 1 -21 -2z"/>
</g>
</svg>
